<svg xmlns="http://www.w3.org/2000/svg" width="24" height="25" viewBox="0 0 24 25"><defs><style>.a{fill:none;}.b{fill:#8a939b;}.c{fill:#e52a34;}</style></defs><g transform="translate(-272 -54)"><g transform="translate(-3 -1)"><rect class="a" width="24" height="24" transform="translate(275 56)"/><path class="b" d="M13,0a1.714,1.714,0,1,0,1.714,1.714A1.715,1.715,0,0,0,13,0ZM10.589,2.612a5.313,5.313,0,0,0-3.161,5.1c0,4.714-1.629,5.9-2.6,6.6-.43.311-.83.6-.83,1.112C4,17.232,6.692,18,13,18s9-.768,9-2.571c0-.511-.4-.8-.83-1.112-.969-.7-2.6-1.888-2.6-6.6a5.3,5.3,0,0,0-3.161-5.1,2.573,2.573,0,0,1-4.821,0ZM10.429,18.8v.054a2.571,2.571,0,1,0,5.143,0V18.8c-.807.033-1.664.054-2.571.054S11.235,18.837,10.429,18.8Z" transform="translate(274 57.001)"/></g><g transform="translate(284 54)"><rect class="c" width="12" height="12" rx="6"/></g></g></svg>