<svg xmlns="http://www.w3.org/2000/svg" width="20" height="20" viewBox="0 0 20 20"><defs><style>.a,.b{fill:none;}.b{stroke:#8a939b;}</style></defs><rect class="a" width="20" height="20"/><path class="b" d="M9.5,3C5.358,3,2,5.955,2,9.6a6.3,6.3,0,0,0,2.66,5.038,2.69,2.69,0,0,1-1.318,2.781h0a.3.3,0,0,0-.186.28.294.294,0,0,0,.288.3h.025a4.991,4.991,0,0,0,3.419-1.632,1.09,1.09,0,0,1,.983-.325A8.408,8.408,0,0,0,9.5,16.2c4.142,0,7.5-2.955,7.5-6.6S13.642,3,9.5,3Z" transform="translate(0.5 -0.5)"/></svg>