<svg xmlns="http://www.w3.org/2000/svg" width="16" height="16" viewBox="0 0 16 16"><defs><style>.a{fill:none;}.b{fill:#e52a34;}</style></defs><rect class="a" width="16" height="16"/><g transform="translate(2 2.667)"><path class="b" d="M6.272,4A3.224,3.224,0,0,0,3,7.173c0,3.051,3.649,5.966,5.354,7.264l0,0,.039.03h0a1.02,1.02,0,0,0,1.2,0h0l.012-.009.009-.007.01-.009C11.332,13.154,15,10.231,15,7.173A3.224,3.224,0,0,0,11.728,4,3.581,3.581,0,0,0,9,5.455,3.581,3.581,0,0,0,6.272,4Z" transform="translate(-3 -4)"/></g></svg>