<svg xmlns="http://www.w3.org/2000/svg" width="16" height="16" viewBox="0 0 16 16"><defs><style>.a{fill:none;}.b{fill:#e52a34;}.c{fill:#fff;}</style></defs><g transform="translate(-16 -81)"><rect class="a" width="16" height="16" transform="translate(16 81)"/><g transform="translate(18.667 82.334)"><path class="b" d="M59.15,135.471a9.611,9.611,0,0,1-1.679,5.463,17.278,17.278,0,0,1-1.2,1.621A6.72,6.72,0,0,1,54.892,144a.959.959,0,0,1-1.139-.12,13.74,13.74,0,0,1-2.159-2.161,11.108,11.108,0,0,1-2.219-3.962,6.61,6.61,0,0,1,.12-4.5,4.977,4.977,0,0,1,5.937-3.062,4.738,4.738,0,0,1,2.819,2.041,6.067,6.067,0,0,1,.96,3.182" transform="translate(-49.037 -130.02)"/><path class="c" d="M58.258,135.019a2.28,2.28,0,1,1-.731-1.618,2.28,2.28,0,0,1,.731,1.618" transform="translate(-50.932 -131.092)"/></g></g></svg>