<svg xmlns="http://www.w3.org/2000/svg" width="56.464" height="50.701" viewBox="0 0 56.464 50.701"><defs><style>.a{fill:#005bde;}.b{fill:#007fff;}.c{fill:#0043c0;}.d{fill:#fff;}</style></defs><g transform="translate(-32.001 -40)"><path class="a" d="M126.42,67.276h-3.149a.7.7,0,0,1-.778-.779V41.871a.7.7,0,0,1,.778-.779h3.149a.7.7,0,0,1,.778.779V66.5a.7.7,0,0,1-.778.779m6.966-18.989h4.224a.778.778,0,0,1,.7.26q.185.26-.148.668l-5.78,8.159v.148l6.076,8.827a.52.52,0,0,1,.037.668.963.963,0,0,1-.778.3h-3.779a2.776,2.776,0,0,1-1.075-.148,1.852,1.852,0,0,1-.667-.63l-5.558-8.307a1.076,1.076,0,0,1,0-1.224l5.224-7.937a1.63,1.63,0,0,1,1.482-.742" transform="translate(-59.705 -1.088)"/><path class="b" d="M126.42,139.281h-3.149a.7.7,0,0,1-.778-.779V121.071a.7.7,0,0,1,.778-.779h3.149a.7.7,0,0,1,.778.779V122.3h.148a3.373,3.373,0,0,1,1.519-1.446,5.146,5.146,0,0,1,2.445-.556h1a4.963,4.963,0,0,1,4.631,2.374,4.5,4.5,0,0,1,4.335-2.374h1.074a5.705,5.705,0,0,1,4.335,1.558,6.263,6.263,0,0,1,1.482,4.488v12.127a.7.7,0,0,1-.778.779h-3.149a.7.7,0,0,1-.778-.779v-11.9a2.469,2.469,0,0,0-.482-1.706,2.207,2.207,0,0,0-1.667-.519h-.926q-2.557,0-2.557,2.856v11.237q0,.779-.815.779H133.9a.7.7,0,0,1-.778-.779V126.56a1.894,1.894,0,0,0-2.223-2.225h-1.149q-2.556,0-2.557,2.819v11.274a.7.7,0,0,1-.778.779" transform="translate(-59.709 -51.189)"/><path class="c" d="M64.545,79.324a17.314,17.314,0,0,0-2.26-1.806l.852-.811a7.969,7.969,0,0,0,2-6.671,11.367,11.367,0,0,0-7.892-9.066c-4.224-1.364-7.447-.737-11.523,1.474l-.408.258-.111.074-.926.59a.845.845,0,0,0-.259,1.143l.7,1.032.222.369.111.147.111.184.148.184,1.445,2.064a.855.855,0,0,0,1.149.332l1.593-.811h.037c2.223-1.143,3.742-1.364,5.41-.811a8.052,8.052,0,0,1,1.667.885A3.234,3.234,0,0,1,57.839,72.1l-.111.221c-.889,1-3.038,1.806-5.78,2.174l-.371.074L50.5,74.68a.849.849,0,0,0-.741.921l.111,1.032a2.127,2.127,0,0,0,0,.295l.111.811v.184h0l.148,1.143.148,1.4a.851.851,0,0,0,.926.737l1.334-.111h.333c2.742-.111,4.891-.184,6.3,1.437a6.791,6.791,0,0,1,1.408,6.781,7.692,7.692,0,0,1-5.447,4.9l-.371.074h-.3a7.857,7.857,0,0,1-2.742.221c1.593-3.87,1.593-7.076-.037-9.582h-.037a6.457,6.457,0,0,0-9.115-1.474,7.03,7.03,0,0,0-3.149,6.523,12.231,12.231,0,0,0,2.779,7.26l-.7.848L40.388,99.41a.845.845,0,0,0,.148,1.179l.63.516.333.295,1.26.958H42.8l.111.074.408.295.222.147,1.149.811a.855.855,0,0,0,1.186-.184l.741-.885.333-.332,1.223-1.7a15.009,15.009,0,0,0,7.929.147l.852-.184a14.161,14.161,0,0,0,10-9.251,11.535,11.535,0,0,0-2.408-12.088" transform="translate(-7.379 -13.145)"/><path class="d" d="M55.285,133.388a5.938,5.938,0,0,1-1.037,3.375,10.672,10.672,0,0,1-.741,1,4.152,4.152,0,0,1-.852.89.593.593,0,0,1-.7-.074,8.49,8.49,0,0,1-1.334-1.335,6.863,6.863,0,0,1-1.371-2.448,4.083,4.083,0,0,1,.074-2.782,3.075,3.075,0,0,1,3.668-1.891,2.927,2.927,0,0,1,1.741,1.261,3.748,3.748,0,0,1,.593,1.966" transform="translate(-13.441 -57.252)"/><path class="b" d="M56.517,134.169a1.409,1.409,0,1,1-.451-1,1.409,1.409,0,0,1,.451,1" transform="translate(-16.394 -58.977)"/></g></svg>