<svg xmlns="http://www.w3.org/2000/svg" width="16" height="16" viewBox="0 0 16 16"><defs><style>.a{fill:#33af53;}</style></defs><path class="a" d="M13,2a.875.875,0,0,0-.758.428l-.333.558a1.079,1.079,0,0,1-.652.475l-.009,0a1.07,1.07,0,0,1-.809-.084l-.567-.316a.883.883,0,0,0-1.312.758l-.013.659a1.071,1.071,0,0,1-.325.734l-.006.006a1.066,1.066,0,0,1-.734.325l-.659.011a.885.885,0,0,0-.758,1.314l.317.57a1.066,1.066,0,0,1,.084.8.1.1,0,0,0,0,.014,1.073,1.073,0,0,1-.472.647l-.559.336a.884.884,0,0,0,0,1.516l.559.336a1.07,1.07,0,0,1,.472.647s0,.01,0,.016a1.065,1.065,0,0,1-.083.8l-.317.57a.883.883,0,0,0,.758,1.312l.659.011a1.07,1.07,0,0,1,.734.327l.006.006a1.066,1.066,0,0,1,.325.734l.011.658a.886.886,0,0,0,1.314.759l.57-.317a1.066,1.066,0,0,1,.8-.084l.014,0a1.07,1.07,0,0,1,.647.472l.336.559a.884.884,0,0,0,1.516,0l.336-.559a1.07,1.07,0,0,1,.647-.472l.016,0a1.065,1.065,0,0,1,.8.084l.57.317a.884.884,0,0,0,1.312-.759l.011-.658a1.07,1.07,0,0,1,.327-.734l.006-.006a1.068,1.068,0,0,1,.734-.327l.658-.011a.885.885,0,0,0,.759-1.312l-.317-.57a1.066,1.066,0,0,1-.084-.8l0-.016a1.07,1.07,0,0,1,.472-.647l.559-.336a.884.884,0,0,0,0-1.516l-.559-.336a1.07,1.07,0,0,1-.472-.647l0-.016a1.065,1.065,0,0,1,.084-.8l.317-.57a.884.884,0,0,0-.759-1.312l-.658-.011a1.07,1.07,0,0,1-.734-.327l-.006-.006a1.068,1.068,0,0,1-.327-.734l-.011-.658a.885.885,0,0,0-1.312-.759l-.57.317a1.066,1.066,0,0,1-.8.084l-.016,0a1.073,1.073,0,0,1-.647-.472l-.336-.559A.875.875,0,0,0,13,2Zm3.2,5.6a.8.8,0,0,1,.566,1.366l-3.648,3.648a.8.8,0,0,1-1.131,0l-1.962-1.962A.8.8,0,0,1,11.155,9.52l1.4,1.4,3.083-3.083A.8.8,0,0,1,16.2,7.6Z" transform="translate(-5.001 -2)"/></svg>