<svg xmlns="http://www.w3.org/2000/svg" width="15.833" height="15" viewBox="0 0 15.833 15"><defs><style>.a{fill:#8a939b;}</style></defs><path class="a" d="M14.006,1a2.865,2.865,0,0,0-2.827,2.885,3.114,3.114,0,0,0,.057.577L6.111,6.814a2.817,2.817,0,0,0-2.284-1.2,2.885,2.885,0,0,0,0,5.769A2.809,2.809,0,0,0,6.12,10.172L11.249,12.5a2.82,2.82,0,1,0,2.757-2.267,2.809,2.809,0,0,0-2.293,1.212L6.584,9.122A2.917,2.917,0,0,0,6.655,8.5a2.968,2.968,0,0,0-.071-.631l5.1-2.353a2.81,2.81,0,0,0,2.324,1.253,2.865,2.865,0,0,0,2.827-2.885A2.865,2.865,0,0,0,14.006,1Zm0,1.154a1.7,1.7,0,0,1,1.7,1.731,1.7,1.7,0,1,1-3.393,0A1.7,1.7,0,0,1,14.006,2.154ZM3.827,6.769A1.731,1.731,0,1,1,2.131,8.5,1.7,1.7,0,0,1,3.827,6.769Zm10.179,4.615a1.731,1.731,0,1,1-1.7,1.731A1.7,1.7,0,0,1,14.006,11.385Z" transform="translate(-1 -1)"/></svg>